<svg width="32" height="32" viewBox="0 0 32 32" fill="none" xmlns="http://www.w3.org/2000/svg">
<rect width="32" height="32" fill="white"/>
<g clip-path="url(#clip0_119_7)">
<path d="M11.0667 4.33337C9.22819 4.33337 7.7334 5.82817 7.7334 7.66671V16V26C7.7334 26.9219 8.47819 27.6667 9.40007 27.6667C10.3219 27.6667 11.0667 26.9219 11.0667 26V17.6667H19.4001C20.3219 17.6667 21.0667 16.9219 21.0667 16C21.0667 15.0782 20.3219 14.3334 19.4001 14.3334H11.0667V7.66671H22.7334C23.6553 7.66671 24.4001 6.92192 24.4001 6.00004C24.4001 5.07817 23.6553 4.33337 22.7334 4.33337H11.0667Z" fill="#4990F1"/>
</g>
<defs>
<clipPath id="clip0_119_7">
<rect width="16.6667" height="26.6667" fill="white" transform="translate(7.7334 2.66669)"/>
</clipPath>
</defs>
</svg>
